<?xml version="1.0" standalone="no"?><svg xmlns="http://www.w3.org/2000/svg" viewBox="0 0 1440 320"><path fill="#ffd700" fill-opacity="2" d="M0,192L26.7,197.3C53.3,203,107,213,160,218.7C213.3,224,267,224,320,192C373.3,160,427,96,480,112C533.3,128,587,224,640,266.7C693.3,309,747,299,800,261.3C853.3,224,907,160,960,112C1013.3,64,1067,32,1120,48C1173.3,64,1227,128,1280,165.3C1333.3,203,1387,213,1413,218.7L1440,224L1440,0L1413.3,0C1386.7,0,1333,0,1280,0C1226.7,0,1173,0,1120,0C1066.7,0,1013,0,960,0C906.7,0,853,0,800,0C746.7,0,693,0,640,0C586.7,0,533,0,480,0C426.7,0,373,0,320,0C266.7,0,213,0,160,0C106.7,0,53,0,27,0L0,0Z"></path></svg>