<?xml version="1.0" standalone="no"?>
<svg xmlns:xlink="http://www.w3.org/1999/xlink" id="wave" style="transform:rotate(180deg); transition: 0.3s" viewBox="0 0 1440 490" version="1.1" xmlns="http://www.w3.org/2000/svg"><defs><linearGradient id="sw-gradient-0" x1="0" x2="0" y1="1" y2="0"><stop stop-color="rgba(204.876, 91.072, 54.522, 1)" offset="0%"/><stop stop-color="rgba(136.565, 104.867, 34.797, 1)" offset="100%"/></linearGradient></defs><path style="transform:translate(0, 0px); opacity:1" fill="url(#sw-gradient-0)" d="M0,49L18.5,114.3C36.9,180,74,310,111,343C147.7,376,185,310,222,245C258.5,180,295,114,332,130.7C369.2,147,406,245,443,261.3C480,278,517,212,554,155.2C590.8,98,628,49,665,57.2C701.5,65,738,131,775,147C812.3,163,849,131,886,155.2C923.1,180,960,261,997,302.2C1033.8,343,1071,343,1108,318.5C1144.6,294,1182,245,1218,187.8C1255.4,131,1292,65,1329,32.7C1366.2,0,1403,0,1440,8.2C1476.9,16,1514,33,1551,65.3C1587.7,98,1625,147,1662,212.3C1698.5,278,1735,359,1772,392C1809.2,425,1846,408,1883,375.7C1920,343,1957,294,1994,294C2030.8,294,2068,343,2105,351.2C2141.5,359,2178,327,2215,277.7C2252.3,229,2289,163,2326,179.7C2363.1,196,2400,294,2437,310.3C2473.8,327,2511,261,2548,212.3C2584.6,163,2622,131,2640,114.3L2658.5,98L2658.5,490L2640,490C2621.5,490,2585,490,2548,490C2510.8,490,2474,490,2437,490C2400,490,2363,490,2326,490C2289.2,490,2252,490,2215,490C2178.5,490,2142,490,2105,490C2067.7,490,2031,490,1994,490C1956.9,490,1920,490,1883,490C1846.2,490,1809,490,1772,490C1735.4,490,1698,490,1662,490C1624.6,490,1588,490,1551,490C1513.8,490,1477,490,1440,490C1403.1,490,1366,490,1329,490C1292.3,490,1255,490,1218,490C1181.5,490,1145,490,1108,490C1070.8,490,1034,490,997,490C960,490,923,490,886,490C849.2,490,812,490,775,490C738.5,490,702,490,665,490C627.7,490,591,490,554,490C516.9,490,480,490,443,490C406.2,490,369,490,332,490C295.4,490,258,490,222,490C184.6,490,148,490,111,490C73.8,490,37,490,18,490L0,490Z"/></svg>