<svg viewBox="0 0 387 319" fill="none" xmlns="http://www.w3.org/2000/svg">
<path d="M207.992 299.495L230.983 286.223V259.27L207.992 272.538V299.495Z" fill="#E33C5C"/>
<path d="M207.992 299.495L185 286.223V259.27L207.992 272.538V299.495Z" fill="#FF5A72"/>
<path d="M207.992 272.539L185 259.27L207.992 246L230.983 259.27L207.992 272.539Z" fill="#FFAF6D"/>
<path d="M228.125 303.144L241.351 295.509V280.003L228.125 287.636V303.144Z" fill="#423EAF"/>
<path d="M228.125 303.144L214.899 295.509V280.003L228.125 287.636V303.144Z" fill="#5652CC"/>
<path d="M228.125 287.635L214.899 280.002L228.125 272.368L241.351 280.002L228.125 287.635Z" fill="#807DFB"/>
<g style="mix-blend-mode:multiply">
<path d="M214.899 280.003L219.487 282.651L232.714 275.018L228.124 272.369L214.899 280.003Z" fill="#DAE0F5"/>
</g>
<g style="mix-blend-mode:multiply">
<path d="M221.806 299.496L219.487 282.651L214.899 280.003V295.509L221.806 299.496Z" fill="#DAE0F5"/>
</g>
<path d="M31.6541 183.648L0 165.373L31.6541 147.097L63.308 165.373L31.6541 183.648Z" fill="#F6F6FB"/>
<path d="M31.6541 220.198L0 201.922V165.373L31.6541 183.649V220.198Z" fill="#CED3F8"/>
<path d="M31.6541 220.198L63.3088 201.922V165.373L31.6541 183.649V220.198Z" fill="#BBC0E6"/>
<path d="M31.6541 153.218L29.1232 151.757L31.6541 150.296L34.1858 151.757L31.6541 153.218ZM37.5498 156.622L35.0191 155.161L37.5498 153.7L40.0814 155.161L37.5498 156.622ZM43.4464 160.026L40.9138 158.565L43.4464 157.103L45.9754 158.565L43.4464 160.026ZM49.3404 163.43L46.8098 161.968L49.3404 160.507L51.872 161.968L49.3404 163.43ZM55.236 166.833L52.7044 165.372L55.236 163.911L57.7676 165.372L55.236 166.833ZM25.7585 156.622L23.2275 155.161L25.7585 153.7L28.2901 155.161L25.7585 156.622ZM31.6541 160.026L29.1232 158.565L31.6541 157.103L34.1858 158.565L31.6541 160.026ZM37.5498 163.43L35.0191 161.968L37.5498 160.507L40.0814 161.968L37.5498 163.43ZM43.4464 166.833L40.9138 165.372L43.4464 163.911L45.9754 165.372L43.4464 166.833ZM49.3404 170.236L46.8098 168.775L49.3404 167.314L51.872 168.775L49.3404 170.236ZM19.8645 160.026L17.3325 158.565L19.8645 157.103L22.3961 158.565L19.8645 160.026ZM25.7585 163.43L23.2275 161.968L25.7585 160.507L28.2901 161.968L25.7585 163.43ZM31.6541 166.833L29.1232 165.372L31.6541 163.911L34.1858 165.372L31.6541 166.833ZM37.5498 170.236L35.0191 168.775L37.5498 167.314L40.0814 168.775L37.5498 170.236ZM43.4464 173.639L40.9138 172.179L43.4464 170.718L45.9754 172.179L43.4464 173.639ZM13.9685 163.43L11.4369 161.968L13.9685 160.507L16.5001 161.968L13.9685 163.43ZM19.8645 166.833L17.3325 165.372L19.8645 163.911L22.3961 165.372L19.8645 166.833ZM25.7585 170.236L23.2275 168.775L25.7585 167.314L28.2901 168.775L25.7585 170.236ZM31.6541 173.639L29.1232 172.179L31.6541 170.718L34.1858 172.179L31.6541 173.639ZM37.5498 177.045L35.0191 175.582L37.5498 174.121L40.0814 175.582L37.5498 177.045ZM8.07289 166.833L5.54192 165.372L8.07289 163.911L10.6045 165.372L8.07289 166.833ZM13.9685 170.236L11.4369 168.775L13.9685 167.314L16.5001 168.775L13.9685 170.236ZM19.8645 173.639L17.3325 172.179L19.8645 170.718L22.3961 172.179L19.8645 173.639ZM25.7585 177.045L23.2275 175.582L25.7585 174.121L28.2901 175.582L25.7585 177.045ZM31.6541 180.447L29.1232 178.987L31.6541 177.525L34.1858 178.987L31.6541 180.447ZM5.30321 174.554L2.77161 173.093V170.171L5.30321 171.632V174.554ZM11.1972 177.957L8.66724 176.497V173.574L11.1972 175.036V177.957ZM17.0929 181.362L14.5619 179.9V176.978L17.0929 178.439V181.362ZM22.9885 184.766L20.4579 183.304V180.382L22.9885 181.843V184.766ZM28.8841 188.169L26.3535 186.707V183.785L28.8841 185.246V188.169ZM5.30321 181.361L2.77161 179.9V176.978L5.30321 178.439V181.361ZM11.1972 184.765L8.66724 183.304V180.382L11.1972 181.843V184.765ZM17.0929 188.169L14.5619 186.707V183.785L17.0929 185.246V188.169ZM22.9885 191.573L20.4579 190.111V187.189L22.9885 188.65V191.573ZM28.8841 194.977L26.3535 193.515V190.592L28.8841 192.054V194.977ZM5.30321 188.169L2.77161 186.707V183.785L5.30321 185.246V188.169ZM11.1972 191.573L8.66724 190.111V187.189L11.1972 188.65V191.573ZM17.0929 194.977L14.5619 193.515V190.592L17.0929 192.054V194.977ZM22.9885 198.38L20.4579 196.918V193.997L22.9885 195.458V198.38ZM28.8841 201.784L26.3535 200.322V197.4L28.8841 198.861V201.784ZM5.30321 194.976L2.77161 193.515V190.592L5.30321 192.054V194.976ZM11.1972 198.38L8.66724 196.918V193.997L11.1972 195.458V198.38ZM17.0929 201.784L14.5619 200.322V197.4L17.0929 198.861V201.784ZM22.9885 205.189L20.4579 203.726V200.803L22.9885 202.265V205.189ZM28.8841 208.591L26.3535 207.13V204.206L28.8841 205.668V208.591ZM5.30321 201.784L2.77161 200.322V197.4L5.30321 198.861V201.784ZM11.1972 205.189L8.66724 203.726V200.803L11.1972 202.265V205.189ZM17.0929 208.591L14.5619 207.13V204.206L17.0929 205.668V208.591ZM22.9885 211.995L20.4579 210.533V207.61L22.9885 209.072V211.995ZM28.8841 215.398L26.3535 213.937V211.015L28.8841 212.477V215.398ZM58.0067 174.554L60.5376 173.093V170.171L58.0067 171.632V174.554ZM52.1117 177.957L54.6427 176.497V173.574L52.1117 175.036V177.957ZM46.216 181.362L48.747 179.9V176.978L46.216 178.439V181.362ZM40.3204 184.766L42.8511 183.304V180.382L40.3204 181.843V184.766ZM34.4248 188.169L36.9564 186.707V183.785L34.4248 185.246V188.169ZM58.0067 181.361L60.5376 179.9V176.978L58.0067 178.439V181.361ZM52.1117 184.765L54.6427 183.304V180.382L52.1117 181.843V184.765ZM46.216 188.169L48.747 186.707V183.785L46.216 185.246V188.169ZM40.3204 191.573L42.8511 190.111V187.189L40.3204 188.65V191.573ZM34.4248 194.977L36.9564 193.515V190.592L34.4248 192.054V194.977ZM58.0067 188.169L60.5376 186.707V183.785L58.0067 185.246V188.169ZM52.1117 191.573L54.6427 190.111V187.189L52.1117 188.65V191.573ZM46.216 194.977L48.747 193.515V190.592L46.216 192.054V194.977ZM40.3204 198.38L42.8511 196.918V193.997L40.3204 195.458V198.38ZM34.4248 201.784L36.9564 200.322V197.4L34.4248 198.861V201.784ZM58.0067 194.976L60.5376 193.515V190.592L58.0067 192.054V194.976ZM52.1117 198.38L54.6427 196.918V193.997L52.1117 195.458V198.38ZM46.216 201.784L48.747 200.322V197.4L46.216 198.861V201.784ZM40.3204 205.189L42.8511 203.726V200.803L40.3204 202.265V205.189ZM34.4248 208.591L36.9564 207.13V204.206L34.4248 205.668V208.591ZM58.0067 201.784L60.5376 200.322V197.4L58.0067 198.861V201.784ZM52.1117 205.189L54.6427 203.726V200.803L52.1117 202.265V205.189ZM46.216 208.591L48.747 207.13V204.206L46.216 205.668V208.591ZM40.3204 211.995L42.8511 210.533V207.61L40.3204 209.072V211.995ZM34.4248 215.398L36.9564 213.937V211.015L34.4248 212.477V215.398Z" fill="#DAE0F5"/>
<path style="mix-blend-mode:multiply" d="M42.7482 153.502H37.55L50.7768 161.14L37.55 168.775H57.4142L63.3079 165.373L42.7482 153.502Z" fill="url(#paint0_linear_564_597)"/>
<path d="M37.55 168.776L50.7768 161.141V145.635L37.55 153.268V168.776Z" fill="#009AAA"/>
<path d="M37.5501 168.776L24.3237 161.141V145.635L37.5501 153.268V168.776Z" fill="#00B6BF"/>
<path d="M37.5501 153.267L24.3237 145.634L37.5501 138L50.7768 145.634L37.5501 153.267Z" fill="#00D6DC"/>
<path d="M94.7494 88.8834C94.7494 84.5758 91.6967 79.2909 87.9665 77.1362L42.7814 51.0499C39.0514 48.8984 36 50.659 36 54.9669V98.0762C36 102.385 39.0511 107.67 42.7814 109.823L87.9665 135.91C91.6967 138.064 94.7494 136.304 94.7494 131.998V88.8834Z" fill="#F6F6FB"/>
<path d="M94.7494 131.997V88.8829C94.7494 84.5753 91.6967 79.2904 87.9664 77.1356L42.7813 51.0494C40.9385 49.9873 39.2634 49.8813 38.0381 50.563L39.8138 49.5301L39.8179 49.5359C41.058 48.7424 42.8009 48.7989 44.7334 49.915L89.9181 76.0015C93.6481 78.1544 96.6998 83.4409 96.6998 87.7488V130.858C96.6998 133.114 95.8581 134.662 94.5287 135.323L92.9185 136.263C94.0497 135.515 94.7494 134.05 94.7494 131.997Z" fill="url(#paint1_linear_564_597)"/>
<path d="M49.6756 86.5309V82.9816C50.1065 83.2396 50.5862 83.4058 51.0844 83.4696C51.2447 83.4697 51.4026 83.4315 51.5451 83.3582C51.6877 83.2849 51.8106 83.1786 51.9036 83.0481C52.1724 82.6631 52.3358 82.2145 52.3778 81.7469C52.4646 80.9464 52.4989 80.1411 52.4806 79.3361C52.4806 77.4235 52.5574 76.1343 52.711 75.4686C52.8648 74.8032 53.1421 74.3571 53.5431 74.1305C53.9442 73.9035 54.5291 73.8788 55.2978 74.0563C56.163 74.3354 56.9894 74.723 57.7572 75.2097L58.436 75.6016V79.1363C57.4883 78.589 56.8798 78.2995 56.6106 78.2676C56.5008 78.2436 56.3866 78.2514 56.2812 78.2901C56.1758 78.3287 56.0835 78.3965 56.0152 78.4857C55.8872 78.6632 55.8231 79.0577 55.8231 79.6689C55.8231 80.2898 55.7847 81.4458 55.7078 83.1367C55.6994 83.8758 55.5874 84.6102 55.375 85.3181C55.2471 85.7401 55.0108 86.1212 54.6897 86.4233C54.3156 86.6967 53.8759 86.8665 53.4152 86.9155C53.8921 87.5002 54.3064 88.1334 54.6511 88.8046C54.9787 89.4589 55.2259 90.1503 55.3875 90.8639C55.5796 91.7743 55.6911 92.6998 55.7206 93.6297C55.7802 95.3008 55.8102 96.3631 55.8106 96.8167C55.7878 97.318 55.8572 97.8193 56.0152 98.2956C56.1617 98.6459 56.3724 98.9657 56.6366 99.2385C57.1836 99.723 57.7878 100.139 58.4357 100.477V104.026L57.7572 103.634C56.8102 103.114 55.9215 102.495 55.106 101.786C54.49 101.217 53.965 100.558 53.5495 99.8296C53.1339 99.1119 52.8457 98.3277 52.6978 97.5117C52.5278 96.3364 52.4549 95.1491 52.48 93.9619C52.48 92.148 52.4117 90.9304 52.275 90.3091C52.1352 89.5326 51.8461 88.7905 51.4236 88.1241C50.9535 87.4812 50.359 86.9393 49.6753 86.5306L49.6756 86.5309ZM79.2106 103.583C78.7797 103.325 78.3001 103.159 77.8019 103.095C77.642 103.095 77.4845 103.133 77.3428 103.207C77.201 103.281 77.0794 103.389 76.9884 103.52C76.7244 103.907 76.5594 104.353 76.5081 104.818C76.4216 105.613 76.3873 106.414 76.4056 107.214C76.4056 109.126 76.331 110.419 76.1817 111.092C76.0322 111.765 75.7569 112.215 75.3557 112.442C74.9541 112.668 74.3649 112.69 73.5881 112.508C72.7229 112.229 71.8965 111.842 71.1288 111.355L70.4502 110.963V107.414C71.3637 107.941 71.9614 108.219 72.2433 108.249C72.3568 108.272 72.4747 108.265 72.5842 108.226C72.6937 108.188 72.7906 108.12 72.8646 108.031C72.9967 107.856 73.065 107.469 73.0693 106.87C73.0735 106.271 73.1099 105.143 73.1785 103.487C73.1826 102.72 73.2991 101.958 73.5242 101.224C73.6659 100.785 73.925 100.392 74.2734 100.089C74.62 99.827 75.0368 99.6738 75.4707 99.6491C74.9369 98.9682 74.4736 98.2349 74.0877 97.4606C73.6701 96.5204 73.3938 95.5236 73.2678 94.5026C73.1738 93.7584 73.1055 92.2006 73.0631 89.8294C73.0808 89.2975 73.0225 88.7658 72.89 88.2504C72.7641 87.9123 72.5678 87.6049 72.3139 87.3486C71.746 86.8504 71.1203 86.4222 70.4502 86.0731V82.5382L71.1288 82.9301C72.0743 83.4498 72.9629 84.0667 73.7802 84.771C74.3969 85.3356 74.9201 85.9946 75.33 86.7234C75.7419 87.4457 76.0298 88.2319 76.1817 89.0494C76.3564 90.2253 76.4313 91.4138 76.4056 92.6023C76.369 93.8207 76.4333 95.04 76.5978 96.2478C76.7381 97.0264 77.0296 97.77 77.4559 98.4366C77.9286 99.0806 78.5252 99.6237 79.2106 100.034V103.583ZM58.8196 89.6964C58.8196 88.7654 59.4731 88.3882 60.2795 88.8534C60.7044 89.1305 61.058 89.5038 61.3116 89.9431C61.5652 90.3824 61.7116 90.8753 61.739 91.3818C61.739 92.3125 61.0855 92.69 60.2795 92.2245C59.8545 91.9475 59.5008 91.5742 59.2472 91.1349C58.9935 90.6956 58.8471 90.2026 58.8196 89.6961V89.6964ZM63.9153 92.638C63.9153 91.7073 64.5688 91.3298 65.3748 91.7953C65.7998 92.0723 66.1534 92.4456 66.4071 92.8849C66.6607 93.3242 66.8072 93.8171 66.8347 94.3237C66.8347 95.2544 66.1809 95.6316 65.3748 95.1664C64.9499 94.8893 64.5963 94.516 64.3427 94.0767C64.0891 93.6374 63.9427 93.1445 63.9153 92.638Z" fill="#CED3F8"/>
<path d="M69.0105 95.5792C69.0105 94.6482 69.6639 94.271 70.4703 94.7365C70.8953 95.0136 71.2489 95.3869 71.5025 95.8262C71.7561 96.2655 71.9025 96.7584 71.9299 97.265C71.9299 98.1957 71.2764 98.5725 70.4703 98.1073C70.0454 97.8303 69.6917 97.457 69.438 97.0177C69.1844 96.5784 69.0379 96.0855 69.0105 95.5789V95.5792Z" fill="#CED3F8"/>
<path d="M359.1 183.384L377.783 172.599V150.697L359.1 161.479V183.384Z" fill="#BBC0E6"/>
<path d="M359.1 183.384L340.417 172.599V150.697L359.1 161.479V183.384Z" fill="#CED3F8"/>
<path d="M359.1 161.479L340.417 150.698L359.1 139.914L377.783 150.698L359.1 161.479Z" fill="#F6F6FB"/>
<path d="M347.139 195.122C347.139 197.757 345.272 198.833 342.99 197.517L203.635 117.06C201.351 115.743 199.486 112.51 199.486 109.876V4.76392C199.486 2.12918 201.351 1.05164 203.635 2.36884L342.99 82.8256C345.271 84.1431 347.139 87.3767 347.139 90.0114L347.139 195.122Z" fill="#423EAF"/>
<path d="M346.122 81.0181L206.765 0.560733C205.609 -0.105903 204.562 -0.156984 203.807 0.295365V0.292794L200.827 2.02123L200.835 2.02284C201.574 1.66494 202.555 1.74654 203.634 2.36884L342.99 82.8256C345.271 84.1431 347.138 87.3767 347.138 90.0114V195.121C347.138 196.429 346.677 197.352 345.936 197.79V197.792L348.914 196.063L348.905 196.062C349.74 195.667 350.269 194.712 350.269 193.314V88.2033C350.269 85.5689 348.402 82.3356 346.121 81.0181H346.122Z" fill="url(#paint2_linear_564_597)"/>
<path d="M203.635 7.15918V110.621L342.99 191.078V87.6162L203.635 7.15918Z" fill="white"/>
<path d="M248.491 253.897C246.21 255.214 242.476 255.214 240.195 253.897L100.838 173.439C98.558 172.123 98.558 169.967 100.838 168.649L195.826 113.808C198.106 112.492 201.84 112.492 204.122 113.808L343.479 194.267C345.76 195.583 345.76 197.738 343.479 199.056L248.491 253.897Z" fill="#F1F1F6"/>
<path d="M204.268 125.218L197.453 121.284L200.86 119.316L207.676 123.251L204.268 125.218ZM215.746 131.846L208.93 127.91L212.338 125.943L219.153 129.878L215.746 131.846ZM227.224 138.472L220.409 134.537L223.817 132.57L230.633 136.505L227.224 138.472ZM238.701 145.099L231.887 141.165L235.296 139.197L242.11 143.132L238.701 145.099ZM250.18 151.726L243.366 147.791L246.774 145.825L253.589 149.759L250.18 151.726ZM261.66 158.354L254.845 154.419L258.251 152.451L265.068 156.385L261.66 158.354ZM273.138 164.982L266.324 161.046L269.732 159.078L276.545 163.013L273.138 164.982ZM284.617 171.607L277.801 167.674L281.21 165.705L288.024 169.64L284.617 171.607ZM296.095 178.234L289.28 174.301L292.687 172.332L299.503 176.268L296.095 178.234ZM307.573 184.862L300.758 180.926L304.167 178.96L310.981 182.894L307.573 184.862ZM319.052 191.489L312.237 187.554L315.644 185.587L322.46 189.521L319.052 191.489ZM330.531 198.117L323.714 194.181L327.123 192.213L333.938 196.149L330.531 198.117ZM198.227 134.984L185.974 127.91L192.789 123.976L205.041 131.05L198.227 134.984ZM191.888 144.029L174.972 134.262L181.789 130.327L198.704 140.095L191.888 144.029ZM185.072 153.348L163.494 140.889L170.309 136.955L191.886 149.414L185.072 153.348ZM161.857 155.982L149.604 148.91L158.831 143.582L171.083 150.655L161.857 155.982ZM178.772 165.75L166.52 158.676L175.745 153.348L188 160.423L178.772 165.75ZM195.689 175.516L183.436 168.443L192.663 163.115L204.915 170.19L195.689 175.516ZM254.013 209.192L241.761 202.115L250.987 196.789L263.242 203.863L254.013 209.192ZM282.682 225.742L258.65 211.866L267.876 206.54L291.909 220.415L282.682 225.742ZM237.126 199.441L200.353 178.208L209.579 172.882L246.353 194.113L237.126 199.441ZM212.918 143.467L202.89 137.678L209.704 133.742L219.733 139.531L212.918 143.467ZM206.579 152.51L196.55 146.721L203.366 142.785L213.394 148.575L206.579 152.51ZM200.077 161.649L190.05 155.86L196.866 151.925L206.894 157.714L200.077 161.649ZM214.769 170.13L204.741 164.341L211.556 160.405L221.584 166.196L214.769 170.13ZM229.457 178.611L219.431 172.822L226.246 168.888L236.273 174.678L229.457 178.611ZM244.15 187.094L234.122 181.305L240.936 177.368L250.964 183.159L244.15 187.094ZM258.84 195.575L248.813 189.785L255.628 185.851L265.654 191.641L258.84 195.575ZM273.53 204.056L263.503 198.267L270.318 194.33L280.345 200.121L273.53 204.056ZM296.886 217.541L278.193 206.748L285.008 202.814L303.701 213.607L296.886 217.541ZM221.27 160.991L211.243 155.203L218.058 151.268L228.085 157.057L221.27 160.991ZM235.961 169.473L225.933 163.683L232.748 159.749L242.776 165.539L235.961 169.473ZM250.649 177.956L240.623 172.166L247.438 168.23L257.466 174.02L250.649 177.956ZM265.341 186.437L255.313 180.648L262.13 176.712L272.156 182.501L265.341 186.437ZM280.032 194.919L270.003 189.128L276.82 185.193L286.848 190.983L280.032 194.919ZM308.05 211.095L284.694 197.61L291.51 193.675L314.867 207.16L308.05 211.095ZM227.608 151.948L217.58 146.159L224.396 142.224L234.423 148.014L227.608 151.948ZM242.299 160.429L232.271 154.64L239.086 150.705L249.114 156.493L242.299 160.429ZM256.988 168.91L246.962 163.121L253.776 159.189L263.804 164.977L256.988 168.91ZM271.678 177.393L261.651 171.603L268.466 167.668L278.494 173.458L271.678 177.393ZM286.37 185.873L276.342 180.084L283.156 176.151L293.186 181.939L286.37 185.873ZM301.06 194.356L291.033 188.566L297.848 184.632L307.875 190.421L301.06 194.356ZM319.052 204.743L305.724 197.047L312.539 193.113L325.866 200.809L319.052 204.743Z" fill="#DAE0F5"/>
<path d="M325.554 187.736L215.432 124.157L218.74 122.247L328.861 185.827L325.554 187.736Z" fill="#6B67E9"/>
<path d="M237.124 207.655L180.93 175.211L146.011 195.372L202.205 227.815L237.124 207.655Z" fill="#DAE0F5"/>
<path d="M343.479 199.056L248.491 253.897C246.679 254.943 243.955 255.155 241.764 254.54C241.749 254.535 240.403 254.017 240.194 253.897L100.838 173.439C100.687 173.351 100.54 173.256 100.398 173.152C100.391 173.146 100.384 173.141 100.377 173.136C100.34 173.108 100.309 173.081 100.274 173.053C100.195 172.992 100.118 172.927 100.044 172.86C100.007 172.827 99.9722 172.792 99.9379 172.758C99.8537 172.676 99.7741 172.589 99.6995 172.498L99.6705 172.466C99.6654 172.458 99.6593 172.451 99.6545 172.445C99.5754 172.342 99.5032 172.235 99.4383 172.123C99.2572 171.821 99.1529 171.48 99.1347 171.128H99.127V173.136H99.143C99.1302 174.012 99.6876 174.89 100.838 175.555L240.195 256.012C243.521 257.662 248.271 257.34 249.686 257.03C251.099 256.72 252.37 256.366 253.853 256.043L343.479 204.298C344.633 203.632 345.201 202.752 345.186 201.872V196.687C345.177 197.546 344.607 198.403 343.479 199.056Z" fill="url(#paint3_linear_564_597)"/>
<path d="M336.215 89.5082L310.555 74.6937L210.409 16.8747C208.827 15.9623 207.533 16.7089 207.533 18.536V28.4806C207.533 30.3083 208.827 32.5501 210.409 33.4632L310.555 91.2822L336.215 106.097C337.797 107.011 339.092 106.264 339.092 104.437V94.4907C339.092 92.6637 337.797 90.4222 336.215 89.5082Z" fill="#FF826A"/>
<path d="M226.112 28.5586L323.708 84.9053V96.4353L226.112 40.0887V28.5586Z" fill="white"/>
<path d="M326.46 88.2266V89.5232L335.628 94.8161V93.5198L326.46 88.2266ZM326.46 92.6559L335.628 97.9492V96.6525L326.46 91.3596V92.6559ZM326.46 95.7889L335.628 101.082V99.7856L326.46 94.4926V95.7889Z" fill="#E33C5C"/>
<path d="M216.953 24.34L219.599 25.8676C218.803 24.6758 217.758 23.671 216.536 22.9225C213.714 21.2931 211.426 22.6141 211.426 25.8731C211.437 26.7572 211.58 27.6347 211.851 28.4763L212.205 27.1572L216.953 24.34ZM219.679 25.9871L218.977 28.6074C218.932 28.8075 218.819 28.9853 218.656 29.1096C218.493 29.2339 218.291 29.2966 218.086 29.2866L216.429 29.2397L219.635 31.0902L219.13 32.9761L217.984 32.3142L217.63 33.6347L215.504 32.4074L215.858 31.087L211.973 28.8439C212.814 31.2547 214.541 33.5727 216.536 34.7244C219.358 36.3539 221.646 35.0328 221.646 31.7739C221.646 29.8842 220.876 27.758 219.679 25.9871ZM214.864 28.3366L216.429 29.2394L217.03 26.9946L214.864 28.3366Z" fill="white"/>
<path d="M254.405 134.956L208.93 108.702V41.7646L254.405 68.0192V134.956ZM337.358 146.579L258.483 101.04V70.3738L337.358 115.912V146.579ZM337.358 182.518L258.483 136.98V105.306L337.358 150.845V182.518Z" fill="#DAE0F5"/>
<path d="M234.995 89.6393L232.224 88.0397V84.8408L231.111 84.1982V87.3971L228.341 85.7975V87.0826L231.111 88.6822V91.8811L232.224 92.5236V89.3248L234.995 90.9244V89.6393Z" fill="white"/>
<path d="M277.801 97.9926L264.669 90.411V87.8408L277.801 95.4225V97.9926ZM319.434 122.029L283.558 101.317V98.7463L319.434 119.459V122.029ZM272.147 126.814L264.669 122.498V119.927L272.147 124.244V126.814ZM319.434 154.116L277.904 130.139V127.568L319.434 151.546V154.116ZM281.405 140.997L264.669 131.334V128.764L281.405 138.426V140.997ZM319.434 162.953L287.162 144.321V141.751L319.434 160.383V162.953Z" fill="#807DFB"/>
<path d="M243.926 42.9109L243.025 42.3905L244.454 47.987L245.448 48.5611L246.427 45.8615L247.405 49.691L248.4 50.2651L249.829 46.319L248.928 45.7985L247.903 48.812L246.877 44.615L245.976 44.0945L244.951 47.108L243.926 42.9109ZM236.842 38.8212L235.941 38.3007L237.37 43.8972L238.364 44.4714L239.343 41.7717L240.322 45.6013L241.316 46.1754L242.745 42.2292L241.844 41.7087L240.819 44.7223L239.794 40.5252L238.893 40.0047L237.868 43.0182L236.842 38.8212ZM229.758 34.7314L228.858 34.2109L230.287 39.8075L231.281 40.3816L232.26 37.6823L233.238 41.5118L234.232 42.0856L235.662 38.1394L234.76 37.619L233.736 40.6328L232.71 36.4354L231.809 35.915L230.784 38.9288L229.758 34.7314ZM249.536 50.1874C249.547 50.3895 249.605 50.5861 249.706 50.7613C249.808 50.9366 249.949 51.0855 250.118 51.1962C250.176 51.2401 250.244 51.267 250.316 51.2737C250.388 51.2805 250.461 51.2669 250.526 51.2344C250.585 51.192 250.632 51.1345 250.661 51.0678C250.691 51.0011 250.702 50.9277 250.693 50.8553C250.683 50.6556 250.626 50.4612 250.526 50.2881C250.426 50.115 250.286 49.9682 250.118 49.86C250.06 49.8164 249.991 49.7892 249.918 49.7812C249.846 49.7733 249.773 49.785 249.707 49.815C249.646 49.8549 249.598 49.9109 249.568 49.9767C249.537 50.0426 249.526 50.1156 249.536 50.1874Z" fill="#6B67E9"/>
<g style="mix-blend-mode:multiply">
<path d="M367.292 225.707L265.683 285.969H268.447L370.06 227.305L367.292 225.707Z" fill="#DAE0F5"/>
</g>
<path d="M367.292 225.708L350.723 216.142L249.114 274.808L265.682 284.374L367.292 225.708Z" fill="#00D6DC"/>
<path d="M251.283 273.556L254.226 275.253L253.818 275.492L250.874 273.791L251.283 273.556ZM260.142 268.442L263.082 270.142L262.675 270.379L259.732 268.677L260.142 268.442ZM268.999 263.328L271.94 265.029L271.531 265.265L268.589 263.565L268.999 263.328ZM277.854 258.216L280.797 259.914L280.389 260.152L277.446 258.45L277.854 258.216ZM286.711 253.1L289.657 254.802L289.246 255.036L286.301 253.338L286.711 253.1ZM295.569 247.988L298.512 249.687L298.105 249.926L295.159 248.223L295.569 247.988ZM304.426 242.875L307.369 244.574L306.961 244.808L304.015 243.109L304.426 242.875ZM313.28 237.76L316.226 239.46L315.818 239.696L312.872 237.997L313.28 237.76ZM322.137 232.647L325.084 234.347L324.673 234.583L321.73 232.883L322.137 232.647ZM330.997 227.534L333.94 229.233L333.531 229.469L330.589 227.771L330.997 227.534ZM339.853 222.42L342.797 224.12L342.388 224.356L339.443 222.655L339.853 222.42ZM348.301 217.542L351.244 219.243L351.653 219.006L348.711 217.306L348.301 217.542Z" fill="#F6F6FB"/>
<path d="M294.685 256.552L297.301 258.063L321.721 243.964L319.103 242.454L294.685 256.552ZM265.683 285.969L249.114 276.404V274.807L265.683 284.373V285.969Z" fill="#00B6BF"/>
<path d="M367.292 227.307L265.683 285.969V284.373L367.292 225.707V227.307Z" fill="#009AAA"/>
<path d="M252.545 272.827L254.018 273.677L253.61 273.915L252.136 273.063L252.545 272.827ZM253.814 272.094L255.287 272.944L254.879 273.183L253.405 272.33L253.814 272.094ZM255.084 271.361L256.557 272.211L256.149 272.449L254.675 271.597L255.084 271.361ZM256.353 270.628L257.826 271.478L257.418 271.717L255.944 270.865L256.353 270.628ZM257.623 269.895L259.096 270.745L258.688 270.984L257.214 270.131L257.623 269.895ZM258.892 269.162L260.365 270.012L259.957 270.251L258.483 269.399L258.892 269.162ZM261.403 267.712L262.876 268.562L262.468 268.801L260.994 267.949L261.403 267.712ZM262.673 266.98L264.146 267.829L263.738 268.068L262.264 267.216L262.673 266.98ZM263.942 266.247L265.415 267.096L265.007 267.335L263.533 266.483L263.942 266.247ZM265.212 265.514L266.685 266.363L266.277 266.602L264.803 265.75L265.212 265.514ZM266.481 264.781L267.954 265.63L267.546 265.869L266.072 265.017L266.481 264.781ZM267.751 264.048L269.224 264.897L268.816 265.136L267.342 264.284L267.751 264.048ZM270.262 262.598L271.735 263.447L271.327 263.686L269.853 262.834L270.262 262.598ZM271.531 261.865L273.004 262.715L272.596 262.953L271.122 262.101L271.531 261.865ZM272.801 261.132L274.274 261.982L273.866 262.22L272.392 261.368L272.801 261.132ZM274.07 260.399L275.543 261.249L275.135 261.487L273.661 260.635L274.07 260.399ZM275.34 259.666L276.813 260.516L276.405 260.754L274.931 259.902L275.34 259.666ZM276.609 258.933L278.082 259.783L277.674 260.021L276.2 259.169L276.609 258.933ZM279.12 257.483L280.593 258.333L280.185 258.572L278.711 257.72L279.12 257.483ZM280.39 256.75L281.863 257.6L281.455 257.839L279.981 256.986L280.39 256.75ZM281.659 256.017L283.132 256.867L282.724 257.106L281.25 256.254L281.659 256.017ZM282.929 255.284L284.402 256.134L283.994 256.373L282.52 255.521L282.929 255.284ZM284.198 254.551L285.671 255.401L285.263 255.64L283.789 254.788L284.198 254.551ZM285.468 253.819L286.941 254.668L286.533 254.907L285.059 254.055L285.468 253.819ZM287.979 252.369L289.452 253.218L289.044 253.457L287.57 252.605L287.979 252.369ZM289.248 251.636L290.722 252.485L290.313 252.724L288.839 251.872L289.248 251.636ZM290.518 250.903L291.991 251.753L291.583 251.991L290.109 251.139L290.518 250.903ZM291.787 250.17L293.26 251.019L292.852 251.258L291.378 250.406L291.787 250.17ZM293.057 249.437L294.53 250.287L294.122 250.525L292.648 249.673L293.057 249.437ZM294.326 248.704L295.8 249.553L295.391 249.792L293.917 248.94L294.326 248.704ZM296.838 247.254L298.311 248.104L297.903 248.343L296.429 247.49L296.838 247.254ZM298.107 246.521L299.58 247.371L299.172 247.609L297.698 246.757L298.107 246.521ZM299.377 245.788L300.85 246.638L300.442 246.877L298.968 246.024L299.377 245.788ZM300.646 245.055L302.119 245.905L301.711 246.143L300.237 245.291L300.646 245.055ZM301.916 244.322L303.389 245.172L302.981 245.411L301.507 244.559L301.916 244.322ZM303.185 243.589L304.658 244.439L304.25 244.678L302.776 243.826L303.185 243.589ZM305.696 242.14L307.169 242.989L306.761 243.228L305.287 242.376L305.696 242.14ZM306.966 241.407L308.439 242.256L308.031 242.495L306.557 241.643L306.966 241.407ZM308.235 240.674L309.708 241.523L309.3 241.762L307.826 240.91L308.235 240.674ZM309.505 239.941L310.978 240.79L310.57 241.029L309.096 240.177L309.505 239.941ZM310.774 239.208L312.247 240.057L311.839 240.296L310.365 239.444L310.774 239.208ZM312.044 238.475L313.517 239.325L313.109 239.563L311.635 238.711L312.044 238.475ZM314.555 237.025L316.028 237.875L315.62 238.113L314.146 237.261L314.555 237.025ZM315.824 236.292L317.297 237.142L316.889 237.38L315.415 236.528L315.824 236.292ZM317.094 235.559L318.567 236.409L318.159 236.647L316.685 235.795L317.094 235.559ZM318.363 234.826L319.836 235.676L319.428 235.915L317.954 235.062L318.363 234.826ZM319.633 234.093L321.106 234.943L320.698 235.181L319.224 234.329L319.633 234.093ZM320.902 233.36L322.375 234.21L321.967 234.449L320.493 233.596L320.902 233.36ZM323.413 231.91L324.886 232.76L324.478 232.999L323.004 232.146L323.413 231.91ZM324.683 231.177L326.156 232.027L325.748 232.266L324.274 231.414L324.683 231.177ZM325.952 230.445L327.425 231.294L327.017 231.533L325.543 230.681L325.952 230.445ZM327.222 229.711L328.695 230.561L328.287 230.8L326.813 229.948L327.222 229.711ZM328.491 228.979L329.964 229.828L329.556 230.067L328.082 229.215L328.491 228.979ZM329.761 228.246L331.234 229.095L330.826 229.334L329.352 228.482L329.761 228.246ZM332.272 226.796L333.745 227.645L333.337 227.884L331.863 227.032L332.272 226.796ZM333.541 226.063L335.014 226.913L334.606 227.151L333.132 226.299L333.541 226.063ZM334.811 225.33L336.284 226.179L335.876 226.418L334.402 225.566L334.811 225.33ZM336.08 224.597L337.554 225.447L337.145 225.685L335.671 224.833L336.08 224.597ZM337.35 223.864L338.823 224.714L338.415 224.952L336.941 224.1L337.35 223.864ZM338.619 223.131L340.093 223.981L339.684 224.219L338.21 223.367L338.619 223.131ZM341.13 221.681L342.604 222.531L342.195 222.769L340.721 221.917L341.13 221.681ZM342.4 220.948L343.873 221.798L343.465 222.037L341.991 221.185L342.4 220.948ZM343.669 220.215L345.143 221.065L344.734 221.304L343.26 220.452L343.669 220.215ZM344.939 219.483L346.412 220.332L346.004 220.571L344.53 219.719L344.939 219.483ZM346.208 218.749L347.682 219.599L347.273 219.838L345.799 218.986L346.208 218.749ZM347.478 218.017L348.951 218.866L348.543 219.105L347.069 218.253L347.478 218.017Z" fill="#F6F6FB"/>
<path d="M382.647 228.16C382.046 228.146 381.454 228.295 380.931 228.591L378.513 229.987C378.746 230.058 378.97 230.156 379.181 230.278C380.832 231.233 382.17 233.549 382.17 235.455C382.173 235.821 382.107 236.184 381.974 236.525L384.591 235.014C385.126 234.679 385.568 234.214 385.875 233.663C386.182 233.111 386.345 232.491 386.347 231.859C386.347 230.878 385.957 229.937 385.263 229.243C384.569 228.55 383.628 228.16 382.647 228.16Z" fill="url(#paint4_linear_564_597)"/>
<path d="M299.163 278.897C299.445 279.08 299.679 279.328 299.847 279.619C300.015 279.91 300.112 280.237 300.131 280.573C300.131 280.946 299.968 281.183 299.725 281.242L306.472 280.256L307.916 278.203L306.472 274.486L303.59 272.821L298.404 278.893C298.513 278.81 298.647 278.766 298.784 278.766C298.921 278.767 299.055 278.813 299.163 278.897Z" fill="url(#paint5_linear_564_597)"/>
<path d="M299.164 278.897C299.055 278.813 298.921 278.767 298.784 278.767C298.647 278.766 298.513 278.811 298.404 278.893L298.323 278.985L295.922 281.8L299.655 281.251L299.725 281.243C299.968 281.183 300.131 280.946 300.131 280.573C300.112 280.237 300.015 279.91 299.847 279.619C299.679 279.328 299.445 279.08 299.164 278.897Z" fill="url(#paint6_linear_564_597)"/>
<path d="M371.635 239.917C371.348 239.732 371.12 239.467 370.979 239.155L369.809 236.138C369.759 235.984 369.744 235.82 369.764 235.659C369.784 235.498 369.839 235.344 369.925 235.206L371.049 233.604C371.134 233.487 371.26 233.405 371.401 233.374C371.542 233.342 371.69 233.363 371.818 233.432L374.169 234.789C374.457 234.975 374.684 235.241 374.822 235.554L375.992 238.57C376.043 238.725 376.059 238.888 376.039 239.05C376.02 239.211 375.965 239.366 375.878 239.504L374.756 241.105C374.67 241.222 374.545 241.304 374.403 241.335C374.262 241.366 374.114 241.345 373.987 241.276L371.635 239.917Z" fill="#CED3F8"/>
<path d="M375.787 239.019L307.916 278.204L306.472 274.486L374.344 235.303L375.787 239.019Z" fill="#FF826A"/>
<path d="M374.344 241.071L306.472 280.256L307.916 278.203L375.787 239.019L374.344 241.071Z" fill="#E33C5C"/>
<path d="M374.344 235.303L306.472 274.486L303.59 272.821L371.461 233.637L374.344 235.303Z" fill="#FFAF6D"/>
<path d="M382.812 234.632L381.644 231.619C381.504 231.305 381.276 231.039 380.988 230.853L378.639 229.496C378.551 229.449 378.452 229.425 378.352 229.426C378.252 229.427 378.153 229.453 378.066 229.502C378.02 229.523 371.277 233.418 371.277 233.418C371.362 233.379 371.455 233.361 371.549 233.363C371.643 233.366 371.734 233.39 371.818 233.433L374.169 234.789C374.457 234.975 374.684 235.242 374.822 235.555L375.992 238.57C376.043 238.725 376.059 238.889 376.039 239.05C376.02 239.212 375.965 239.367 375.878 239.505L374.756 241.106C374.713 241.164 374.66 241.214 374.6 241.253L381.358 237.353C381.442 237.307 381.516 237.244 381.574 237.168L382.7 235.568C382.785 235.43 382.839 235.274 382.859 235.113C382.878 234.951 382.862 234.787 382.812 234.632Z" fill="url(#paint7_linear_564_597)"/>
<path style="mix-blend-mode:multiply" d="M375.587 240.683C375.647 240.645 375.7 240.594 375.741 240.535L376.865 238.936C376.951 238.798 377.005 238.643 377.025 238.481C377.044 238.32 377.028 238.156 376.977 238.001L375.809 234.988C375.67 234.674 375.443 234.408 375.154 234.222L372.804 232.867C372.722 232.822 372.632 232.798 372.539 232.796C372.446 232.794 372.354 232.814 372.271 232.855C372.26 232.849 371.779 233.127 371.779 233.127C371.865 233.089 371.958 233.071 372.051 233.074C372.145 233.077 372.237 233.101 372.32 233.145L374.671 234.5C374.959 234.687 375.186 234.953 375.326 235.266L376.495 238.281C376.545 238.436 376.561 238.599 376.541 238.76C376.522 238.921 376.468 239.076 376.382 239.214L375.256 240.817C375.215 240.875 375.162 240.925 375.102 240.965L375.587 240.683Z" fill="url(#paint8_linear_564_597)"/>
<path style="mix-blend-mode:multiply" d="M376.604 240.094C376.666 240.056 376.719 240.006 376.761 239.946L377.882 238.347C377.969 238.209 378.024 238.054 378.044 237.893C378.063 237.732 378.047 237.568 377.996 237.414L376.828 234.397C376.687 234.085 376.46 233.819 376.173 233.632L373.823 232.278C373.741 232.233 373.65 232.209 373.557 232.207C373.464 232.205 373.372 232.225 373.288 232.266C373.281 232.26 372.797 232.54 372.797 232.54C372.882 232.501 372.975 232.483 373.069 232.486C373.162 232.488 373.254 232.512 373.337 232.556L375.689 233.913C375.977 234.099 376.205 234.364 376.345 234.677L377.515 237.692C377.565 237.847 377.581 238.011 377.561 238.173C377.541 238.335 377.486 238.49 377.399 238.628L376.275 240.227C376.234 240.287 376.181 240.337 376.12 240.375L376.604 240.094Z" fill="url(#paint9_linear_564_597)"/>
<path style="mix-blend-mode:multiply" d="M377.623 239.507C377.684 239.469 377.737 239.418 377.778 239.359L378.904 237.76C378.99 237.621 379.044 237.466 379.064 237.304C379.083 237.143 379.068 236.979 379.018 236.824L377.848 233.808C377.707 233.496 377.479 233.231 377.192 233.044L374.842 231.688C374.76 231.644 374.669 231.619 374.576 231.617C374.484 231.615 374.392 231.635 374.308 231.676C374.301 231.672 373.815 231.951 373.815 231.951C373.901 231.913 373.995 231.894 374.089 231.897C374.183 231.9 374.275 231.924 374.359 231.968L376.708 233.326C376.996 233.51 377.224 233.775 377.364 234.087L378.534 237.105C378.584 237.26 378.6 237.423 378.58 237.584C378.56 237.746 378.506 237.9 378.42 238.038L377.296 239.639C377.254 239.697 377.201 239.747 377.14 239.786L377.623 239.507Z" fill="url(#paint10_linear_564_597)"/>
<path d="M149.377 34.9907C156.425 30.9218 162.8 30.5614 167.397 33.2636L171.868 35.845L171.865 35.852C167.293 33.35 161.053 33.7811 154.168 37.7562L149.378 34.9907H149.377Z" fill="#F7F7FC"/>
<path d="M154.167 37.7559V67.0519L128.797 81.7005C128.797 65.5207 140.155 45.8458 154.167 37.7559Z" fill="#807DFB"/>
<path d="M149.377 34.9902L166.722 45.0042L141.867 89.2464L124.006 78.9349C124.006 62.7544 135.365 43.0801 149.377 34.9902Z" fill="url(#paint11_linear_564_597)"/>
<path d="M154.167 37.7559V67.0519L128.797 81.7005C128.797 65.5207 140.155 45.8458 154.167 37.7559Z" fill="#00D6DC"/>
<path d="M128.796 81.7004L154.167 67.0518L131.703 93.6359C129.85 90.6365 128.796 86.6162 128.796 81.7004Z" fill="#807DFB"/>
<path d="M154.167 67.0522V37.7561C168.18 29.6662 179.539 36.2243 179.539 52.4042C179.539 68.584 168.18 88.2583 154.168 96.3482C144.413 101.98 135.948 100.506 131.703 93.636L154.167 67.0522Z" fill="#DCE1F4"/>
<path d="M130.984 95.0723C129.327 93.9972 127.935 92.5605 126.913 90.8701L131.703 93.6359C132.725 95.3264 134.117 96.7631 135.775 97.8382L130.984 95.0723Z" fill="#A3A9D0"/>
<path d="M126.913 90.8698C125.06 87.871 124.006 83.85 124.006 78.9346L128.796 81.7001H128.796C128.796 86.6155 129.85 90.6362 131.703 93.6353L126.913 90.8698Z" fill="#5652CC"/>
<path d="M42.6264 245.152C40.4813 246.39 36.9717 246.389 34.826 245.151L8.84388 230.149C6.70004 228.91 6.6994 226.884 8.84452 225.646L34.4112 210.885C36.557 209.646 40.0662 209.646 42.211 210.885L68.1931 225.887C70.3386 227.125 70.3395 229.151 68.1951 230.389L42.6264 245.152Z" fill="#F6F6FB"/>
<path d="M38.7275 244.201C37.6989 244.227 36.6803 243.994 35.7653 243.523L9.78323 228.522C9.25314 228.216 9.11949 227.947 9.11499 227.897C9.11949 227.849 9.25378 227.58 9.7842 227.273L35.3503 212.513C36.2733 212.067 37.2852 211.835 38.3104 211.835C39.3355 211.835 40.3475 212.066 41.2706 212.512L67.2534 227.513C67.7848 227.82 67.9191 228.089 67.9239 228.139C67.9191 228.187 67.7848 228.456 67.2553 228.762L41.6867 243.524C40.7726 243.994 39.755 244.227 38.7275 244.201Z" fill="white"/>
<path d="M7.23844 236.945L7.24261 236.945C7.20406 237.791 7.73319 238.643 8.84447 239.284L34.8269 254.286C36.9714 255.525 40.4813 255.524 42.6267 254.286L68.1931 239.525C69.3166 238.876 69.8451 238.012 69.792 237.16L69.793 228.251C69.7461 229.029 69.2176 229.799 68.195 230.389L42.6264 245.151C40.4813 246.39 36.9717 246.389 34.8259 245.151L8.84383 230.149C7.78492 229.537 7.25032 228.733 7.23779 227.927L7.23844 236.945Z" fill="url(#paint12_linear_564_597)"/>
<path d="M7.23844 233.757H7.24261C7.20406 234.603 7.73319 235.455 8.84447 236.096L34.8269 251.098C36.9714 252.336 40.4813 252.336 42.6267 251.097L68.1931 236.337C69.3166 235.688 69.8451 234.824 69.792 233.972L69.793 232.202C69.7461 232.98 69.2176 233.75 68.195 234.34L42.6264 249.102C40.4813 250.341 36.9717 250.34 34.8259 249.102L8.84383 234.1C7.78492 233.488 7.25032 232.684 7.23779 231.878L7.23844 233.757Z" fill="url(#paint13_linear_564_597)"/>
<path d="M39.0693 217.908C39.7863 217.544 40.5789 217.354 41.3829 217.354C42.1869 217.354 42.9795 217.544 43.6965 217.908C44.9749 218.645 44.9752 219.842 43.6965 220.58C42.9796 220.943 42.187 221.133 41.3831 221.133C40.5791 221.133 39.7865 220.943 39.0696 220.58C37.7916 219.842 37.7916 218.645 39.0696 217.908H39.0693Z" fill="#FCBA06"/>
<g style="mix-blend-mode:multiply">
<path d="M40.988 241.004L49.5122 227.038C50.1024 226.072 48.4906 225.141 46.8158 225.482L22.6267 230.403L40.988 241.004Z" fill="#DAE0F5"/>
</g>
<g style="mix-blend-mode:multiply">
<path d="M29.3807 234.303L35.2638 224.665C35.854 223.698 34.2418 222.767 32.5674 223.108L15.8726 226.505L29.3807 234.303Z" fill="#DFE4F4"/>
</g>
<path d="M141.257 277.485C140.626 277.166 139.929 277 139.222 277C138.514 277 137.817 277.166 137.186 277.485L123.84 285.191C122.72 285.837 122.72 286.895 123.84 287.541L138.856 296.211L156.274 286.155L141.257 277.485Z" fill="#00D6DC"/>
<path d="M137.53 286.001C137.315 285.393 137.646 284.708 138.518 284.204C139.843 283.439 141.896 283.385 143.106 284.083C144.314 284.78 144.219 285.968 142.894 286.732C141.94 287.237 140.854 287.436 139.783 287.301C141.011 288.729 140.594 290.329 139.292 291.079C138.979 290.895 135.142 288.681 135.142 288.681L130.987 286.283C132.286 285.533 135.058 285.292 137.53 286.001Z" fill="#009AAA"/>
<path d="M189.509 305.343L156.274 286.155L138.856 296.212L172.091 315.4C172.723 315.718 173.42 315.885 174.127 315.885C174.835 315.885 175.532 315.719 176.163 315.4L189.51 307.694C190.63 307.047 190.629 305.99 189.509 305.343Z" fill="#F1F1F6"/>
<path d="M123.839 287.541C123.287 287.221 123.007 286.802 123.001 286.381L123.002 288.84H123.004C122.984 289.282 123.26 289.727 123.84 290.061L138.856 298.731V296.211L123.839 287.541Z" fill="#009AAA"/>
<path d="M189.51 307.693L176.163 315.399C175.532 315.718 174.835 315.884 174.127 315.884C173.42 315.884 172.723 315.718 172.091 315.399L138.857 296.211V298.731L172.092 317.919C172.723 318.238 173.421 318.404 174.128 318.404C174.835 318.404 175.533 318.238 176.164 317.919L189.51 310.214C190.096 309.875 190.372 309.424 190.345 308.98V306.577C190.31 306.818 190.216 307.046 190.07 307.241C189.924 307.436 189.732 307.592 189.511 307.693L189.51 307.693Z" fill="url(#paint14_linear_564_597)"/>
<path d="M151.427 291.594L177.973 306.921L179.816 305.857L153.27 290.53L151.427 291.594Z" fill="url(#paint15_linear_564_597)"/>
<path d="M146.662 294.346L156.951 300.286L158.794 299.222L148.505 293.281L146.662 294.346Z" fill="url(#paint16_linear_564_597)"/>
<path d="M158.986 301.46L161.569 302.951L163.412 301.887L160.829 300.396L158.986 301.46Z" fill="url(#paint17_linear_564_597)"/>
<path d="M77.7299 265.854C77.7273 265.019 76.2552 263.967 75.5186 263.539L75.5372 269.816C76.2729 270.244 77.7456 271.296 77.7475 272.131L77.7299 265.854Z" fill="#F5F5FA"/>
<path d="M101.317 269.816L101.299 263.539C100.554 263.969 99.0596 265.029 99.0625 265.867L99.0795 272.143C99.0776 271.306 100.573 270.246 101.317 269.816Z" fill="#BBBFE2"/>
<path d="M83.7537 273.066C86.3348 271.575 90.5004 271.575 93.0635 273.065C94.3367 273.805 94.9747 274.773 94.9786 275.744L94.9593 269.466C94.9564 268.497 94.3184 267.529 93.0458 266.788C90.4817 265.299 86.3171 265.299 83.7354 266.788C82.4381 267.537 81.7917 268.521 81.794 269.502L81.8107 275.779C81.8091 274.797 82.4571 273.814 83.7537 273.066Z" fill="url(#paint18_linear_564_597)"/>
<path d="M78.07 276.95L75.4526 275.429L75.47 281.705L78.0883 283.228L78.07 276.95Z" fill="#CED2F4"/>
<path d="M101.251 281.705L101.233 275.429L98.597 276.95L98.6154 283.228L101.251 281.705Z" fill="#BBBFE2"/>
<path d="M82.946 282.063C83.4465 282.208 83.9618 282.331 84.4881 282.433C86.1259 282.679 86.479 284.465 86.4813 285.215L86.4639 278.938C86.4607 278.187 86.1073 276.403 84.4704 276.157C83.9513 276.056 83.4367 275.932 82.9283 275.787C81.4524 275.284 78.9687 276.431 78.0701 276.95L78.0884 283.227C78.9863 282.707 81.4707 281.56 82.946 282.063Z" fill="url(#paint19_linear_564_597)"/>
<path d="M91.4787 282.689C91.7089 282.557 91.9621 282.471 92.2247 282.434C92.7439 282.333 93.2586 282.21 93.7674 282.065C95.2517 281.56 97.7223 282.708 98.6154 283.228L98.5971 276.95C97.7049 276.431 95.2337 275.284 93.7501 275.788C93.241 275.933 92.7262 276.056 92.207 276.158C91.9442 276.194 91.6908 276.281 91.4601 276.412C90.4481 276.995 90.2338 278.33 90.1763 278.967L90.1949 285.243C90.2521 284.608 90.4657 283.272 91.4784 282.689H91.4787Z" fill="url(#paint20_linear_564_597)"/>
<path d="M77.477 272.619C78.3412 273.474 76.3503 274.909 75.4527 275.428L78.0701 276.95C78.9687 276.431 81.4524 275.284 82.9283 275.787C83.4295 275.931 83.9452 276.055 84.4704 276.157C86.1282 276.405 86.4694 278.234 86.463 278.967H90.1762C90.234 278.33 90.448 276.995 91.46 276.411C91.6907 276.28 91.9442 276.194 92.207 276.157C92.7262 276.056 93.241 275.932 93.75 275.788C95.2336 275.284 97.7049 276.43 98.597 276.95L101.233 275.428C100.34 274.91 98.3657 273.474 99.2389 272.619C99.48 272.34 99.6961 272.041 99.8847 271.724C99.9856 271.537 100.142 271.386 100.332 271.29C101.356 270.698 103.695 270.559 104.74 270.559L104.751 268.408C103.395 268.461 100.333 268.205 99.9094 267.242C99.7253 266.926 99.5128 266.627 99.2746 266.349C98.4113 265.492 100.401 264.058 101.299 263.538L98.6809 262.017C97.7823 262.535 95.2982 263.684 93.8233 263.18C93.3151 263.035 92.8009 262.912 92.2821 262.811C90.6228 262.56 90.2816 260.733 90.2854 260.002L86.569 260C86.5683 260.606 86.3219 261.961 85.2958 262.553C85.0637 262.685 84.8089 262.772 84.5446 262.81C84.0184 262.913 83.5008 263.035 82.9993 263.181C81.2883 263.55 79.0471 262.535 78.1539 262.017L75.5186 263.538C76.4117 264.058 78.3853 265.492 77.5114 266.348C77.2697 266.626 77.0543 266.925 76.8679 267.243C76.7663 267.43 76.6102 267.581 76.4204 267.677C75.3955 268.269 73.0567 268.408 72.0064 268.408L72 270.559C73.2639 270.559 76.4175 270.762 76.8415 271.724C77.0256 272.041 77.2383 272.34 77.477 272.619ZM83.7354 266.787C86.3171 265.298 90.4817 265.298 93.0458 266.787C95.6076 268.277 95.5967 270.692 93.0156 272.182C90.4387 273.67 86.2692 273.669 83.7084 272.18C81.144 270.69 81.1575 268.277 83.7354 266.787Z" fill="#F1F1F6"/>
<path d="M75.4527 275.429C76.3503 274.91 78.3412 273.474 77.477 272.619C77.2383 272.341 77.0256 272.041 76.8415 271.724C76.4175 270.762 73.2639 270.56 72 270.56L72.0177 276.836C73.1741 276.833 74.3273 276.957 75.4566 277.206L75.4527 275.429Z" fill="#CED2F4"/>
<path d="M90.1948 285.243L90.1761 278.968H86.4629L86.4812 285.244L90.1948 285.243Z" fill="#BBBFE2"/>
<path d="M104.757 276.836L104.74 270.56C103.695 270.56 101.356 270.698 100.332 271.29C100.142 271.386 99.9855 271.537 99.8846 271.724C99.696 272.041 99.48 272.34 99.2389 272.619C98.3657 273.474 100.34 274.911 101.233 275.429L101.238 277.232C102.393 276.966 103.573 276.833 104.757 276.836Z" fill="url(#paint21_linear_564_597)"/>
<path style="mix-blend-mode:multiply" d="M155 154.823C155 151.041 152.32 146.399 149.045 144.508L123.955 130.772C120.68 128.881 118 130.428 118 134.21V212.417C118 216.199 120.68 220.841 123.955 222.732L149.045 236.468C152.32 238.359 155 236.812 155 233.03V154.823Z" fill="url(#paint22_linear_564_597)"/>
<path d="M154.667 233.089V154.881C154.667 151.099 151.987 146.458 148.712 144.567L123.666 130.861C122.048 129.927 120.576 129.835 119.5 130.434L121.179 129.465L121.183 129.471C122.271 128.773 123.803 128.824 125.499 129.803L150.545 143.508C153.82 145.4 156.5 150.041 156.5 153.823V232.03C156.5 234.009 155.762 235.368 154.593 235.951L153.061 236.836C154.053 236.179 154.667 234.892 154.667 233.089Z" fill="url(#paint23_linear_564_597)"/>
<g style="mix-blend-mode:screen">
<path d="M148.5 172.03L124.352 159.069C122.501 158 121 155.133 121 152.664V140.901C121 138.433 122.501 137.298 124.352 138.367L148.5 151.328C150.351 152.396 151.852 155.264 151.852 157.733V169.496C151.852 171.964 150.351 173.099 148.5 172.03Z" fill="#423EAF"/>
</g>
<g style="mix-blend-mode:screen">
<path d="M148.5 197.096L124.352 184.135C122.501 183.066 121 180.198 121 177.73V165.967C121 163.498 122.501 162.364 124.352 163.433L148.5 176.393C150.351 177.462 151.852 180.33 151.852 182.798V194.561C151.852 197.03 150.351 198.165 148.5 197.096Z" fill="#423EAF"/>
</g>
<path d="M142 156.912L138.669 155.183V151.725L137.331 151.03V154.488L134 152.759V154.148L137.331 155.878V159.336L138.669 160.03V156.572L142 158.301V156.912Z" fill="white"/>
<path d="M148.568 182.665L123 169.03V166.396L148.568 180.03V182.665Z" fill="#9F9CF8"/>
<path d="M148.5 187.398L134 179.665V177.03L148.5 184.763V187.398Z" fill="#9F9CF8"/>
<path d="M132.5 178.731L123 173.665V171.03L132.5 176.096V178.731Z" fill="#9F9CF8"/>
<path d="M148.5 192.264L123 178.665V176.03L148.5 189.629V192.264Z" fill="#9F9CF8"/>
<g style="mix-blend-mode:screen">
<path d="M148.5 223.096L124.352 210.135C122.501 209.066 121 206.198 121 203.73V191.967C121 189.498 122.501 188.364 124.352 189.433L148.5 202.393C150.351 203.462 151.852 206.33 151.852 208.798V220.561C151.852 223.03 150.351 224.165 148.5 223.096Z" fill="#423EAF"/>
</g>
<path d="M148.568 208.665L123 195.03V192.396L148.568 206.03V208.665Z" fill="#9F9CF8"/>
<path d="M148.5 213.398L134 205.665V203.03L148.5 210.763V213.398Z" fill="#9F9CF8"/>
<path d="M132.5 204.731L123 199.665V197.03L132.5 202.096V204.731Z" fill="#9F9CF8"/>
<path d="M148.5 218.264L123 204.665V202.03L148.5 215.629V218.264Z" fill="#9F9CF8"/>
<path style="mix-blend-mode:multiply" d="M108.365 234.834H131.942V239.167H108.365V234.834Z" fill="url(#paint24_linear_564_597)"/>
<path style="mix-blend-mode:multiply" d="M97.7347 228.576H121.312V232.909H97.7347V228.576Z" fill="url(#paint25_linear_564_597)"/>
<path d="M95.126 231.576C95.126 228.172 97.2836 228.073 97.2836 228.073C97.2836 228.073 98.4518 228.073 100.349 227.286C102.222 226.508 104.86 226.808 103.386 229.529C103.372 229.564 103.355 229.597 103.335 229.63C103.212 229.806 103.048 229.95 102.857 230.049L98.1433 232.814C97.4247 233.225 95.1427 232.276 95.126 231.576Z" fill="url(#paint26_linear_564_597)"/>
<path d="M95.1381 231.271C95.1796 231.97 97.4301 232.9 98.1433 232.493L102.857 229.728C103.093 229.588 103.316 229.426 103.521 229.244C103.478 229.338 103.441 229.428 103.386 229.529C103.372 229.564 103.355 229.598 103.335 229.63C103.212 229.806 103.048 229.95 102.857 230.05L98.1433 232.815C97.4706 233.199 95.4257 232.391 95.1558 231.711C95.1446 231.666 95.1374 231.62 95.1343 231.573C95.129 231.472 95.1303 231.372 95.1381 231.271Z" fill="#1E1C6B"/>
<path d="M96.0027 227.626C96.5582 227.626 98.5137 228.123 98.5137 228.123C98.5296 228.304 98.5896 228.478 98.6885 228.63C98.7081 228.651 98.7251 228.673 98.7431 228.696C99.129 228.964 99.5209 229.388 98.6056 229.963C98.3621 230.143 98.0622 230.231 97.7599 230.209C97.4577 230.188 97.1731 230.059 96.9575 229.846C96.8388 229.6 96.6552 229.391 96.4264 229.242C96.2727 229.136 96.0992 229.063 95.9163 229.027C95.9159 229.011 95.9143 228.996 95.9115 228.98C95.9115 228.98 95.7695 227.626 96.0027 227.626Z" fill="white"/>
<path d="M95.968 194.341L105.557 194.512C104.764 200.919 103.168 206.739 102.101 212.943C100.958 218.974 99.6684 223.211 98.5427 228.23C98.1315 229.164 96.2463 228.811 95.8636 227.911C95.5658 223.29 95.2227 217.659 96.5929 212.327C96.3635 206.578 95.8334 200.144 95.968 194.341Z" fill="#1E1C6B"/>
<path d="M105.871 237.832C105.871 234.427 108.028 234.329 108.028 234.329C108.028 234.329 109.197 234.329 111.095 233.542C112.967 232.764 115.606 233.065 114.131 235.785C114.117 235.82 114.1 235.853 114.08 235.886C113.957 236.062 113.793 236.206 113.602 236.305L108.888 239.07C108.17 239.481 105.888 238.532 105.871 237.832Z" fill="url(#paint27_linear_564_597)"/>
<path d="M105.884 237.526C105.925 238.225 108.176 239.155 108.888 238.748L113.602 235.983C113.839 235.843 114.061 235.681 114.267 235.499C114.223 235.593 114.186 235.683 114.131 235.784C114.117 235.819 114.1 235.852 114.08 235.885C113.957 236.061 113.793 236.205 113.602 236.304L108.888 239.069C108.217 239.454 106.171 238.646 105.901 237.966C105.889 237.921 105.883 237.875 105.88 237.828C105.874 237.727 105.876 237.626 105.884 237.526Z" fill="#1E1C6B"/>
<path d="M106.749 233.881C107.303 233.881 109.26 234.378 109.26 234.378C109.275 234.558 109.334 234.733 109.433 234.884C109.453 234.906 109.47 234.928 109.488 234.951C109.874 235.219 110.267 235.643 109.352 236.218C109.108 236.398 108.808 236.486 108.506 236.464C108.204 236.443 107.919 236.314 107.703 236.101C107.584 235.855 107.4 235.646 107.171 235.497C107.018 235.391 106.845 235.318 106.662 235.282C106.662 235.266 106.66 235.251 106.656 235.235C106.656 235.235 106.515 233.881 106.749 233.881Z" fill="white"/>
<path d="M102.731 209.575C102.148 206.821 95.4276 206.479 95.8684 195.65C97.9769 195.34 108.616 200.329 110.724 200.018C110.988 206.469 110.364 212.471 110.324 218.766C110.181 224.902 109.6 229.293 109.31 234.429C109.057 235.418 107.14 235.377 106.615 234.553C105.566 230.041 104.308 224.542 104.789 219.057C104.161 216.019 103.414 212.799 102.731 209.575Z" fill="url(#paint28_linear_564_597)"/>
<path d="M100.732 174.62C93.2267 179.635 92.3322 189.594 96.3899 195.914C96.3899 195.914 95.518 181.911 100.732 174.62Z" fill="#E33C5C"/>
<path d="M100.388 201.789C104.957 204.353 109.736 204.358 111.366 201.207C110.756 195.339 110.185 190.564 111.361 184.94C111.013 181.834 110.313 179.947 110.711 178.135C108.198 177.791 106.033 173.932 104.575 173.635C98.3285 172.36 95.2941 183.49 95.8168 195.357C96.2987 198.512 98.1396 200.527 100.388 201.789Z" fill="url(#paint29_linear_564_597)"/>
<path d="M101.111 174.343C102.466 173.364 102.265 172.724 102.062 171.391C101.791 170.654 101.653 169.875 101.654 169.091C101.654 166.123 103.544 163.558 105.861 163.718C110.528 164.038 109.697 166.494 109.697 169.462C109.697 172.212 108.45 174.103 106.365 174.423C106.365 174.874 107.228 175.841 107.797 176.409C105.516 178.186 103.303 176.184 102.424 175.788C101.487 175.363 100.476 175 101.111 174.343Z" fill="#FFD3AB"/>
<path d="M109.165 178.467C116.369 177.12 121.058 171.807 123.979 166.632L126.419 167.711C124.934 174.362 119.771 183.543 110.321 185.255C105.542 185.255 105.918 179.074 109.165 178.467Z" fill="url(#paint30_linear_564_597)"/>
<path d="M124.267 165.76L124.257 165.787C124.257 164.58 124.51 163.877 124.976 163.671C125.076 163.383 125.181 163.082 125.284 162.794C125.885 161.111 127.771 159.667 128.171 160.067C128.412 160.309 127.453 161.051 126.948 161.852C126.71 162.234 126.566 162.667 126.527 163.115C126.527 163.115 128.783 163.325 128.783 165.2C128.783 166.724 127.96 166.122 127.96 165.821C127.379 167.365 126.687 166.453 126.419 167.711L123.979 166.631C123.979 166.631 124.093 166.282 124.267 165.76Z" fill="#FFD3AB"/>
<path d="M103.809 162.967C104.411 162.656 104.954 162.817 105.289 162.601C106.086 162.114 106.841 161.803 107.264 162.034C107.474 162.175 107.672 162.333 107.856 162.506C108.272 162.921 109.123 162.038 109.327 163.109C109.38 163.384 109.403 163.663 109.398 163.942C111.391 164.198 110.41 166.013 108.808 169.51C108.806 168.942 107.6 167.631 107.6 170.153C107.6 170.424 107.803 170.477 107.624 170.837C107.446 171.195 106.3 172.1 105.545 172.856C104.49 173.91 103.871 172.965 102.128 173.154C102.14 172.59 101.98 172.036 101.669 171.564C101.502 171.269 100.546 170.331 100.545 168.693C101.898 168.86 99.4924 165.191 103.809 162.967Z" fill="#1E1C6B"/>
<defs>
<linearGradient id="paint0_linear_564_597" x1="37.55" y1="161.139" x2="63.3079" y2="161.139" gradientUnits="userSpaceOnUse">
<stop stop-color="#CFD5F1"/>
<stop offset="0.283" stop-color="#E1E5F6"/>
<stop offset="0.719" stop-color="#F7F8FD"/>
<stop offset="1" stop-color="white"/>
</linearGradient>
<linearGradient id="paint1_linear_564_597" x1="52.6816" y1="42.1008" x2="103.514" y2="130.146" gradientUnits="userSpaceOnUse">
<stop offset="0.455" stop-color="#FF826A"/>
<stop offset="0.512" stop-color="#F87066"/>
<stop offset="0.626" stop-color="#E5405D"/>
<stop offset="0.635" stop-color="#E33C5C"/>
</linearGradient>
<linearGradient id="paint2_linear_564_597" x1="238.633" y1="-19.8139" x2="359.685" y2="189.854" gradientUnits="userSpaceOnUse">
<stop offset="0.576" stop-color="#807CFB"/>
<stop offset="0.612" stop-color="#1F196F"/>
</linearGradient>
<linearGradient id="paint3_linear_564_597" x1="99.1266" y1="214.204" x2="345.186" y2="214.204" gradientUnits="userSpaceOnUse">
<stop offset="0.562" stop-color="#5652CC"/>
<stop offset="0.612" stop-color="#1F196F"/>
</linearGradient>
<linearGradient id="paint4_linear_564_597" x1="381.125" y1="228.638" x2="384.943" y2="234.976" gradientUnits="userSpaceOnUse">
<stop stop-color="#6B67E9"/>
<stop offset="1" stop-color="#362E93"/>
</linearGradient>
<linearGradient id="paint5_linear_564_597" x1="304.664" y1="280.611" x2="301.076" y2="274.316" gradientUnits="userSpaceOnUse">
<stop stop-color="#BBC0E6"/>
<stop offset="1" stop-color="#F6F6FB"/>
</linearGradient>
<linearGradient id="paint6_linear_564_597" x1="298.651" y1="281.682" x2="297.14" y2="279.73" gradientUnits="userSpaceOnUse">
<stop stop-color="#362E93"/>
<stop offset="1" stop-color="#807CFB"/>
</linearGradient>
<linearGradient id="paint7_linear_564_597" x1="379.188" y1="238.214" x2="374.998" y2="231.169" gradientUnits="userSpaceOnUse">
<stop offset="0.074" stop-color="#A3A9D0"/>
<stop offset="0.137" stop-color="#CED3F8"/>
<stop offset="0.559" stop-color="#CED3F8"/>
<stop offset="0.69" stop-color="#F6F6FB"/>
</linearGradient>
<linearGradient id="paint8_linear_564_597" x1="376.937" y1="239.813" x2="371.728" y2="233.196" gradientUnits="userSpaceOnUse">
<stop offset="0.559" stop-color="#D1D7F3"/>
<stop offset="0.69" stop-color="#F1F1F6"/>
</linearGradient>
<linearGradient id="paint9_linear_564_597" x1="377.955" y1="239.225" x2="372.746" y2="232.608" gradientUnits="userSpaceOnUse">
<stop offset="0.559" stop-color="#D1D7F3"/>
<stop offset="0.69" stop-color="#F1F1F6"/>
</linearGradient>
<linearGradient id="paint10_linear_564_597" x1="378.975" y1="238.636" x2="373.766" y2="232.019" gradientUnits="userSpaceOnUse">
<stop offset="0.559" stop-color="#D1D7F3"/>
<stop offset="0.69" stop-color="#F1F1F6"/>
</linearGradient>
<linearGradient id="paint11_linear_564_597" x1="160.698" y1="29.661" x2="125.121" y2="91.6922" gradientUnits="userSpaceOnUse">
<stop stop-color="#00B6BF"/>
<stop offset="0.199" stop-color="#00ADB8"/>
<stop offset="0.63" stop-color="#009FAE"/>
<stop offset="1" stop-color="#009AAA"/>
</linearGradient>
<linearGradient id="paint12_linear_564_597" x1="69.798" y1="241.567" x2="7.23894" y2="241.568" gradientUnits="userSpaceOnUse">
<stop offset="0.409" stop-color="#BBC0E6"/>
<stop offset="0.413" stop-color="#BCC1E7"/>
<stop offset="0.565" stop-color="#CED3F8"/>
</linearGradient>
<linearGradient id="paint13_linear_564_597" x1="69.798" y1="241.949" x2="7.23876" y2="241.95" gradientUnits="userSpaceOnUse">
<stop offset="0.409" stop-color="#5652CC"/>
<stop offset="0.496" stop-color="#706CE9"/>
<stop offset="0.565" stop-color="#807DFB"/>
</linearGradient>
<linearGradient id="paint14_linear_564_597" x1="190.354" y1="307.307" x2="123.008" y2="307.308" gradientUnits="userSpaceOnUse">
<stop offset="0.409" stop-color="#BBC0E6"/>
<stop offset="0.413" stop-color="#BCC1E7"/>
<stop offset="0.565" stop-color="#CED3F8"/>
</linearGradient>
<linearGradient id="paint15_linear_564_597" x1="151.462" y1="339.605" x2="160.636" y2="291.948" gradientUnits="userSpaceOnUse">
<stop offset="0.409" stop-color="#BBC0E6"/>
<stop offset="0.565" stop-color="#C4CAE9"/>
</linearGradient>
<linearGradient id="paint16_linear_564_597" x1="146.183" y1="315.681" x2="150.423" y2="293.65" gradientUnits="userSpaceOnUse">
<stop offset="0.409" stop-color="#BBC0E6"/>
<stop offset="0.565" stop-color="#C4CAE9"/>
</linearGradient>
<linearGradient id="paint17_linear_564_597" x1="158.262" y1="310.151" x2="160.165" y2="300.267" gradientUnits="userSpaceOnUse">
<stop offset="0.409" stop-color="#BBC0E6"/>
<stop offset="0.565" stop-color="#C4CAE9"/>
</linearGradient>
<linearGradient id="paint18_linear_564_597" x1="81.794" y1="270.725" x2="94.9786" y2="270.725" gradientUnits="userSpaceOnUse">
<stop stop-color="#BBBFE2"/>
<stop offset="1" stop-color="#DCE0F7"/>
</linearGradient>
<linearGradient id="paint19_linear_564_597" x1="78.0701" y1="280.439" x2="86.4813" y2="280.439" gradientUnits="userSpaceOnUse">
<stop stop-color="#BBBFE2"/>
<stop offset="1" stop-color="#CED2F4"/>
</linearGradient>
<linearGradient id="paint20_linear_564_597" x1="98.2031" y1="280.368" x2="90.1232" y2="280.491" gradientUnits="userSpaceOnUse">
<stop stop-color="#CED2F4"/>
<stop offset="1" stop-color="#BBBFE2"/>
</linearGradient>
<linearGradient id="paint21_linear_564_597" x1="99.0211" y1="273.896" x2="104.757" y2="273.896" gradientUnits="userSpaceOnUse">
<stop offset="0.404" stop-color="#BBBFE2"/>
<stop offset="1" stop-color="#CED2F4"/>
</linearGradient>
<linearGradient id="paint22_linear_564_597" x1="117.703" y1="218.423" x2="221.135" y2="186.62" gradientUnits="userSpaceOnUse">
<stop stop-color="#5652CC"/>
<stop offset="1" stop-color="#807DFB"/>
</linearGradient>
<linearGradient id="paint23_linear_564_597" x1="232.655" y1="263.721" x2="145.462" y2="112.699" gradientUnits="userSpaceOnUse">
<stop offset="0.396" stop-color="#20196F"/>
<stop offset="0.479" stop-color="#362E94"/>
</linearGradient>
<linearGradient id="paint24_linear_564_597" x1="108.365" y1="237.001" x2="131.942" y2="237.001" gradientUnits="userSpaceOnUse">
<stop stop-color="#C6CBE7"/>
<stop offset="0.077" stop-color="#CED2EA"/>
<stop offset="0.398" stop-color="#E9EBF6"/>
<stop offset="0.682" stop-color="#F9FAFD"/>
<stop offset="0.899" stop-color="white"/>
</linearGradient>
<linearGradient id="paint25_linear_564_597" x1="97.7344" y1="230.743" x2="121.312" y2="230.743" gradientUnits="userSpaceOnUse">
<stop stop-color="#C6CBE7"/>
<stop offset="0.077" stop-color="#CED2EA"/>
<stop offset="0.398" stop-color="#E9EBF6"/>
<stop offset="0.682" stop-color="#F9FAFD"/>
<stop offset="0.899" stop-color="white"/>
</linearGradient>
<linearGradient id="paint26_linear_564_597" x1="103.816" y1="229.914" x2="95.126" y2="229.914" gradientUnits="userSpaceOnUse">
<stop stop-color="#6A6AE2"/>
<stop offset="0.284" stop-color="#5857C7"/>
<stop offset="0.756" stop-color="#3E3C9E"/>
<stop offset="1" stop-color="#34318F"/>
</linearGradient>
<linearGradient id="paint27_linear_564_597" x1="114.562" y1="236.169" x2="105.871" y2="236.169" gradientUnits="userSpaceOnUse">
<stop stop-color="#6A6AE2"/>
<stop offset="0.284" stop-color="#5857C7"/>
<stop offset="0.756" stop-color="#3E3C9E"/>
<stop offset="1" stop-color="#34318F"/>
</linearGradient>
<linearGradient id="paint28_linear_564_597" x1="110.789" y1="215.403" x2="95.8475" y2="215.403" gradientUnits="userSpaceOnUse">
<stop stop-color="#3366A3"/>
<stop offset="0.016" stop-color="#4A5ABB"/>
<stop offset="0.027" stop-color="#5555C6"/>
<stop offset="1" stop-color="#1E1C6B"/>
</linearGradient>
<linearGradient id="paint29_linear_564_597" x1="111.366" y1="188.591" x2="95.7589" y2="188.591" gradientUnits="userSpaceOnUse">
<stop stop-color="#E33C5C"/>
<stop offset="0.156" stop-color="#E4425D"/>
<stop offset="0.36" stop-color="#E8525F"/>
<stop offset="0.591" stop-color="#EF6D63"/>
<stop offset="0.84" stop-color="#F89369"/>
<stop offset="1" stop-color="#FFAF6D"/>
</linearGradient>
<linearGradient id="paint30_linear_564_597" x1="106.924" y1="182.129" x2="129.771" y2="169.449" gradientUnits="userSpaceOnUse">
<stop stop-color="#FF5A72"/>
<stop offset="0.407" stop-color="#FC5770"/>
<stop offset="0.711" stop-color="#F34D69"/>
<stop offset="0.981" stop-color="#E43D5D"/>
<stop offset="1" stop-color="#E33C5C"/>
</linearGradient>
</defs>
</svg>
